# Blender 4.3.2
# www.blender.org
mtllib board.mtl
o Chessboard_Surround
v -24.000000 0.000000 23.999998
v 24.000000 0.000000 23.999998
v -24.000000 0.000000 -23.999998
v 24.000000 0.000000 -23.999998
v -24.000000 -1.000000 -23.999998
v -24.000000 -1.000000 23.999998
v 24.000000 -1.000000 23.999998
v 24.000000 -1.000000 -23.999998
v -31.199999 -3.000000 -31.199997
v -31.199999 -3.000000 31.199997
v 31.199999 -3.000000 31.199997
v 31.199999 -3.000000 -31.199997
v -29.699999 0.000000 -29.699997
v -31.199999 -1.500000 -31.199997
v -29.933876 -0.726459 -29.933874
v -30.473541 -1.266122 -30.473539
v -31.199999 -1.500000 31.199997
v -29.699999 0.000000 29.699997
v -30.473541 -1.266122 30.473539
v -29.933876 -0.726459 29.933874
v 31.199999 -1.500000 31.199997
v 29.699999 0.000000 29.699997
v 30.473541 -1.266122 30.473539
v 29.933876 -0.726459 29.933874
v 31.199999 -1.500000 -31.199997
v 29.699999 0.000000 -29.699997
v 30.473541 -1.266122 -30.473539
v 29.933876 -0.726459 -29.933874
vn 0.3015 0.9045 -0.3015
vn -0.3015 0.9045 -0.3015
vn 0.3015 0.9045 0.3015
vn -0.3015 0.9045 0.3015
vn 0.5773 0.5774 0.5773
vn 0.5774 0.5773 -0.5773
vn -0.5773 0.5774 -0.5773
vn -0.5774 0.5773 0.5773
vn -0.5774 -0.5773 -0.5773
vn -0.5773 -0.5774 0.5773
vn 0.5774 -0.5773 0.5773
vn 0.5773 -0.5774 -0.5773
vn -0.4804 0.7337 -0.4804
vn -0.6065 0.5142 -0.6065
vn -0.5018 0.7045 -0.5018
vn -0.2273 0.9469 -0.2273
vn -0.6065 0.5142 0.6065
vn -0.4804 0.7337 0.4804
vn -0.2273 0.9469 0.2273
vn -0.5018 0.7045 0.5018
vn 0.6065 0.5142 0.6065
vn 0.4804 0.7337 0.4804
vn 0.2273 0.9469 0.2273
vn 0.5018 0.7045 0.5018
vn 0.6065 0.5142 -0.6065
vn 0.4804 0.7337 -0.4804
vn 0.2273 0.9469 -0.2273
vn 0.5018 0.7045 -0.5018
vt 0.992122 0.437442
vt 0.984797 0.790931
vt 0.984797 0.437442
vt 0.459535 0.437442
vt 0.813024 0.790931
vt 0.459535 0.790931
vt 0.912384 0.437442
vt 0.901396 0.896978
vt 0.901397 0.437442
vt 0.923371 0.437442
vt 0.912384 0.896978
vt 0.912384 0.437442
vt 0.934359 0.437442
vt 0.923371 0.896978
vt 0.923372 0.437442
vt 0.945347 0.437442
vt 0.934359 0.896978
vt 0.934359 0.437442
vt 0.992675 0.000000
vt 0.985350 0.353489
vt 0.985350 0.000000
vt 0.999447 0.437442
vt 0.992122 0.790931
vt 1.000000 0.000000
vt 0.992675 0.353489
vt 0.992675 0.000000
vt 0.896978 0.000000
vt 0.855001 0.395466
vt 0.855001 0.041977
vt 0.459535 -0.000000
vt 0.501512 0.041977
vt 0.459535 0.437442
vt 0.501512 0.395466
vt 0.459535 0.459535
vt 0.000000 0.000000
vt 0.459535 0.000000
vt 0.000000 0.919071
vt 0.454186 0.913721
vt 0.459535 0.919071
vt 0.955209 0.886278
vt 0.950846 0.441417
vt 0.955209 0.437442
vt 0.950846 0.882304
vt 0.945347 0.443139
vt 0.000000 0.459535
vt 0.005350 0.913721
vt 0.965072 0.886278
vt 0.960708 0.441417
vt 0.965072 0.437442
vt 0.960708 0.882304
vt 0.955209 0.443139
vt 0.459535 0.459535
vt 0.005350 0.464885
vt 0.974934 0.886278
vt 0.970571 0.441417
vt 0.974934 0.437442
vt 0.970571 0.882304
vt 0.965072 0.443139
vt 0.454186 0.464885
vt 0.984797 0.886278
vt 0.980433 0.441417
vt 0.980433 0.882304
vt 0.974934 0.443139
vt 0.896978 0.437442
vt 0.992122 0.790931
vt 0.813024 0.437442
vt 0.912384 0.896978
vt 0.934359 0.896978
vt 0.945347 0.896978
vt 0.992675 0.353489
vt 0.999447 0.790931
vt 1.000000 0.353489
vt -0.000000 0.459535
vt 0.945347 0.880581
vt 0.955209 0.880581
vt 0.965072 0.880581
vt 0.974934 0.880581
s 1
g Chessboard_Surround_Chessboard_surround
usemtl Chessboard_surround
f 6/1/6 3/2/3 1/3/1
f 7/4/7 5/5/5 6/6/6
f 12/7/12 14/8/14 25/9/25
f 9/10/9 17/11/17 14/12/14
f 10/13/10 21/14/21 17/15/17
f 11/16/11 25/17/25 21/18/21
f 5/19/5 4/20/4 3/21/3
f 7/22/7 1/23/1 2/1/2
f 8/24/8 2/25/2 4/26/4
f 26/27/26 3/28/3 4/29/4
f 22/30/22 4/29/4 2/31/2
f 18/32/18 2/31/2 1/33/1
f 12/34/12 10/35/10 9/36/9
f 17/37/17 16/38/16 14/39/14
f 19/40/19 15/41/15 16/42/16
f 20/43/20 13/44/13 15/41/15
f 21/45/21 19/46/19 17/37/17
f 23/47/23 20/48/20 19/49/19
f 24/50/24 18/51/18 20/48/20
f 25/52/25 23/53/23 21/45/21
f 27/54/27 24/55/24 23/56/23
f 28/57/28 22/58/22 24/55/24
f 14/39/14 27/59/27 25/52/25
f 16/60/16 28/61/28 27/3/27
f 15/62/15 26/63/26 28/61/28
f 13/64/13 1/33/1 3/28/3
f 6/1/6 5/65/5 3/2/3
f 7/4/7 8/66/8 5/5/5
f 12/7/12 9/67/9 14/8/14
f 9/10/9 10/14/10 17/11/17
f 10/13/10 11/68/11 21/14/21
f 11/16/11 12/69/12 25/17/25
f 5/19/5 8/70/8 4/20/4
f 7/22/7 6/71/6 1/23/1
f 8/24/8 7/72/7 2/25/2
f 26/27/26 13/64/13 3/28/3
f 22/30/22 26/27/26 4/29/4
f 18/32/18 22/30/22 2/31/2
f 12/34/12 11/73/11 10/35/10
f 17/37/17 19/46/19 16/38/16
f 19/40/19 20/43/20 15/41/15
f 20/43/20 18/74/18 13/44/13
f 21/45/21 23/53/23 19/46/19
f 23/47/23 24/50/24 20/48/20
f 24/50/24 22/75/22 18/51/18
f 25/52/25 27/59/27 23/53/23
f 27/54/27 28/57/28 24/55/24
f 28/57/28 26/76/26 22/58/22
f 14/39/14 16/38/16 27/59/27
f 16/60/16 15/62/15 28/61/28
f 15/62/15 13/77/13 26/63/26
f 13/64/13 18/32/18 1/33/1
o ChessBoard
v -24.000000 0.000000 23.999998
v -18.000000 0.000000 23.999998
v -12.000000 0.000000 23.999998
v -24.000000 0.000000 17.999998
v -18.000000 0.000000 17.999998
v -12.000000 0.000000 17.999998
v -24.000000 0.000000 11.999999
v -18.000000 0.000000 11.999999
v -12.000000 0.000000 11.999999
v -24.000000 0.000000 11.999999
v -18.000000 0.000000 11.999999
v -12.000000 0.000000 11.999999
v -24.000000 0.000000 6.000000
v -18.000000 0.000000 6.000000
v -12.000000 0.000000 6.000000
v -24.000000 0.000000 0.000000
v -18.000000 0.000000 0.000000
v -12.000000 0.000000 0.000000
v -24.000000 0.000000 0.000000
v -18.000000 0.000000 0.000000
v -12.000000 0.000000 0.000000
v -24.000000 0.000000 -6.000000
v -18.000000 0.000000 -6.000000
v -12.000000 0.000000 -6.000000
v -24.000000 0.000000 -11.999999
v -18.000000 0.000000 -11.999999
v -12.000000 0.000000 -11.999999
v -24.000000 0.000000 -11.999999
v -18.000000 0.000000 -11.999999
v -12.000000 0.000000 -11.999999
v -24.000000 0.000000 -17.999998
v -18.000000 0.000000 -17.999998
v -12.000000 0.000000 -17.999998
v -24.000000 0.000000 -23.999998
v -18.000000 0.000000 -23.999998
v -12.000000 0.000000 -23.999998
v -12.000000 0.000000 23.999998
v -6.000000 0.000000 23.999998
v 0.000000 0.000000 23.999998
v -12.000000 0.000000 17.999998
v -6.000000 0.000000 17.999998
v 0.000000 0.000000 17.999998
v -12.000000 0.000000 11.999999
v -6.000000 0.000000 11.999999
v 0.000000 0.000000 11.999999
v -12.000000 0.000000 11.999999
v -6.000000 0.000000 11.999999
v 0.000000 0.000000 11.999999
v -12.000000 0.000000 6.000000
v -6.000000 0.000000 6.000000
v 0.000000 0.000000 6.000000
v -12.000000 0.000000 0.000000
v -6.000000 0.000000 0.000000
v 0.000000 0.000000 0.000000
v -12.000000 0.000000 0.000000
v -6.000000 0.000000 0.000000
v 0.000000 0.000000 0.000000
v -12.000000 0.000000 -6.000000
v -6.000000 0.000000 -6.000000
v 0.000000 0.000000 -6.000000
v -12.000000 0.000000 -11.999999
v -6.000000 0.000000 -11.999999
v 0.000000 0.000000 -11.999999
v -12.000000 0.000000 -11.999999
v -6.000000 0.000000 -11.999999
v 0.000000 0.000000 -11.999999
v -12.000000 0.000000 -17.999998
v -6.000000 0.000000 -17.999998
v 0.000000 0.000000 -17.999998
v -12.000000 0.000000 -23.999998
v -6.000000 0.000000 -23.999998
v 0.000000 0.000000 -23.999998
v 0.000000 0.000000 23.999998
v 6.000000 0.000000 23.999998
v 12.000000 0.000000 23.999998
v 0.000000 0.000000 17.999998
v 6.000000 0.000000 17.999998
v 12.000000 0.000000 17.999998
v 0.000000 0.000000 11.999999
v 6.000000 0.000000 11.999999
v 12.000000 0.000000 11.999999
v 0.000000 0.000000 11.999999
v 6.000000 0.000000 11.999999
v 12.000000 0.000000 11.999999
v 0.000000 0.000000 6.000000
v 6.000000 0.000000 6.000000
v 12.000000 0.000000 6.000000
v 0.000000 0.000000 0.000000
v 6.000000 0.000000 0.000000
v 12.000000 0.000000 0.000000
v 0.000000 0.000000 0.000000
v 6.000000 0.000000 0.000000
v 12.000000 0.000000 0.000000
v 0.000000 0.000000 -6.000000
v 6.000000 0.000000 -6.000000
v 12.000000 0.000000 -6.000000
v 0.000000 0.000000 -11.999999
v 6.000000 0.000000 -11.999999
v 12.000000 0.000000 -11.999999
v 0.000000 0.000000 -11.999999
v 6.000000 0.000000 -11.999999
v 12.000000 0.000000 -11.999999
v 0.000000 0.000000 -17.999998
v 6.000000 0.000000 -17.999998
v 12.000000 0.000000 -17.999998
v 0.000000 0.000000 -23.999998
v 6.000000 0.000000 -23.999998
v 12.000000 0.000000 -23.999998
v 12.000000 0.000000 23.999998
v 18.000000 0.000000 23.999998
v 24.000000 0.000000 23.999998
v 12.000000 0.000000 17.999998
v 18.000000 0.000000 17.999998
v 24.000000 0.000000 17.999998
v 12.000000 0.000000 11.999999
v 18.000000 0.000000 11.999999
v 24.000000 0.000000 11.999999
v 12.000000 0.000000 11.999999
v 18.000000 0.000000 11.999999
v 24.000000 0.000000 11.999999
v 12.000000 0.000000 6.000000
v 18.000000 0.000000 6.000000
v 24.000000 0.000000 6.000000
v 12.000000 0.000000 0.000000
v 18.000000 0.000000 0.000000
v 24.000000 0.000000 0.000000
v 12.000000 0.000000 0.000000
v 18.000000 0.000000 0.000000
v 24.000000 0.000000 0.000000
v 12.000000 0.000000 -6.000000
v 18.000000 0.000000 -6.000000
v 24.000000 0.000000 -6.000000
v 12.000000 0.000000 -11.999999
v 18.000000 0.000000 -11.999999
v 24.000000 0.000000 -11.999999
v 12.000000 0.000000 -11.999999
v 18.000000 0.000000 -11.999999
v 24.000000 0.000000 -11.999999
v 12.000000 0.000000 -17.999998
v 18.000000 0.000000 -17.999998
v 24.000000 0.000000 -17.999998
v 12.000000 0.000000 -23.999998
v 18.000000 0.000000 -23.999998
v 24.000000 0.000000 -23.999998
vn -0.0000 1.0000 -0.0000
vt 0.459535 0.835117
vt 0.503721 0.879303
vt 0.459535 0.879303
vt 0.459535 0.790931
vt 0.503722 0.835117
vt 0.547908 0.879303
vt 0.503722 0.790931
vt 0.547908 0.835117
vt 0.592094 0.879303
vt 0.547908 0.790931
vt 0.592094 0.835117
vt 0.636280 0.879303
vt 0.592094 0.790931
vt 0.636280 0.835117
vt 0.547908 0.923489
vt 0.592094 0.967676
vt 0.547908 0.967676
vt 0.592094 0.923489
vt 0.636280 0.967676
vt 0.636280 0.923489
vt 0.680466 0.879303
vt 0.636280 0.790931
vt 0.680466 0.835117
vt 0.724652 0.879303
vt 0.680466 0.790931
vt 0.724652 0.835117
vt 0.680466 0.967676
vt 0.680466 0.923490
vt 0.724652 0.967676
vt 0.724652 0.923490
vt 0.768838 0.879303
vt 0.724652 0.790931
vt 0.768838 0.835117
vt 0.813024 0.879303
vt 0.768838 0.790931
vt 0.813024 0.835117
vt 0.813024 0.481628
vt 0.857210 0.525815
vt 0.813024 0.525815
vt 0.813024 0.437442
vt 0.857210 0.481628
vt 0.901396 0.525815
vt 0.857210 0.437442
vt 0.901396 0.481628
vt 0.941164 0.000000
vt 0.896978 0.044186
vt 0.896978 0.000000
vt 0.985350 0.000000
vt 0.941164 0.044186
vt 0.896978 0.088372
vt 0.985350 0.044186
vt 0.941164 0.088372
vt 0.896978 0.132558
vt 0.985350 0.088372
vt 0.941164 0.132558
vt 0.896978 0.176744
vt 0.985350 0.132558
vt 0.941164 0.176744
vt 0.813024 0.570001
vt 0.857210 0.614187
vt 0.813024 0.614187
vt 0.857210 0.570001
vt 0.901396 0.614187
vt 0.901396 0.570001
vt 0.813024 0.658373
vt 0.857210 0.702559
vt 0.813024 0.702559
vt 0.857210 0.658373
vt 0.901396 0.702559
vt 0.901396 0.658373
vt 0.724652 0.923490
vt 0.768838 0.967676
vt 0.724652 0.967676
vt 0.724652 0.879303
vt 0.768838 0.923490
vt 0.813024 0.967676
vt 0.768838 0.879303
vt 0.813024 0.923490
vt 0.813024 0.746745
vt 0.857210 0.790931
vt 0.813024 0.790931
vt 0.813024 0.702559
vt 0.857210 0.746745
vt 0.901397 0.790931
vt 0.857210 0.702559
vt 0.901397 0.746745
vt 0.813024 0.923489
vt 0.857210 0.967676
vt 0.813024 0.967676
vt 0.813024 0.879303
vt 0.857210 0.923489
vt 0.901396 0.967676
vt 0.857210 0.879303
vt 0.901396 0.923489
vt 0.813024 0.835117
vt 0.813024 0.790931
vt 0.857210 0.835117
vt 0.901396 0.879303
vt 0.857210 0.790931
vt 0.901396 0.835117
vt 0.459535 0.923490
vt 0.503722 0.967676
vt 0.459535 0.967676
vt 0.503722 0.923490
vt 0.547908 0.967676
vt 0.503722 0.879303
vt 0.547908 0.923490
vt 0.813024 0.790931
vt 0.901396 0.437442
vt 0.985350 0.176744
vt 0.813024 0.879303
vt 0.901397 0.702559
vt 0.901396 0.790931
vt 0.547908 0.879303
s 1
g ChessBoard_White
usemtl White
f 31/81/29 33/82/29 30/78/29
f 33/82/29 35/83/29 32/79/29
f 40/87/29 42/88/29 39/85/29
f 42/88/29 44/89/29 41/86/29
f 49/83/29 51/95/29 48/92/29
f 51/95/29 53/96/29 50/93/29
f 58/99/29 60/100/29 57/91/29
f 60/100/29 62/101/29 59/98/29
f 67/89/29 69/105/29 66/97/29
f 69/105/29 71/106/29 68/104/29
f 76/109/29 78/110/29 75/103/29
f 78/110/29 80/111/29 77/108/29
f 85/117/29 87/118/29 84/114/29
f 87/118/29 89/119/29 86/115/29
f 94/125/29 96/126/29 93/122/29
f 96/126/29 98/127/29 95/123/29
f 103/131/29 105/132/29 102/129/29
f 105/132/29 107/133/29 104/130/29
f 112/116/29 114/139/29 111/136/29
f 114/139/29 116/140/29 113/137/29
f 121/138/29 123/145/29 120/142/29
f 123/145/29 125/146/29 122/143/29
f 130/151/29 132/152/29 129/148/29
f 132/152/29 134/153/29 131/149/29
f 139/159/29 141/160/29 138/156/29
f 141/160/29 143/161/29 140/157/29
f 148/167/29 150/168/29 147/164/29
f 150/168/29 152/169/29 149/165/29
f 157/173/29 159/174/29 156/172/29
f 159/174/29 161/175/29 158/170/29
f 166/80/29 168/181/29 165/178/29
f 168/181/29 170/182/29 167/179/29
f 31/81/29 34/84/29 33/82/29
f 33/82/29 36/85/29 35/83/29
f 40/87/29 43/90/29 42/88/29
f 42/88/29 45/91/29 44/89/29
f 49/83/29 52/86/29 51/95/29
f 51/95/29 54/97/29 53/96/29
f 58/99/29 61/102/29 60/100/29
f 60/100/29 63/103/29 62/101/29
f 67/89/29 70/98/29 69/105/29
f 69/105/29 72/107/29 71/106/29
f 76/109/29 79/112/29 78/110/29
f 78/110/29 81/113/29 80/111/29
f 85/117/29 88/120/29 87/118/29
f 87/118/29 90/121/29 89/119/29
f 94/125/29 97/128/29 96/126/29
f 96/126/29 99/129/29 98/127/29
f 103/131/29 106/134/29 105/132/29
f 105/132/29 108/135/29 107/133/29
f 112/116/29 115/115/29 114/139/29
f 114/139/29 117/141/29 116/140/29
f 121/138/29 124/137/29 123/145/29
f 123/145/29 126/147/29 125/146/29
f 130/151/29 133/154/29 132/152/29
f 132/152/29 135/155/29 134/153/29
f 139/159/29 142/162/29 141/160/29
f 141/160/29 144/163/29 143/161/29
f 148/167/29 151/170/29 150/168/29
f 150/168/29 153/171/29 152/169/29
f 157/173/29 160/176/29 159/174/29
f 159/174/29 162/177/29 161/175/29
f 166/80/29 169/183/29 168/181/29
f 168/181/29 171/184/29 170/182/29
g ChessBoard_Black
usemtl Black
f 30/78/29 32/79/29 29/80/29
f 34/84/29 36/85/29 33/82/29
f 39/85/29 41/86/29 38/83/29
f 43/90/29 45/91/29 42/88/29
f 48/92/29 50/93/29 47/94/29
f 52/86/29 54/97/29 51/95/29
f 57/91/29 59/98/29 56/89/29
f 61/102/29 63/103/29 60/100/29
f 66/97/29 68/104/29 65/96/29
f 70/98/29 72/107/29 69/105/29
f 75/103/29 77/108/29 74/101/29
f 79/112/29 81/113/29 78/110/29
f 84/114/29 86/115/29 83/116/29
f 88/120/29 90/121/29 87/118/29
f 93/122/29 95/123/29 92/124/29
f 97/128/29 99/129/29 96/126/29
f 102/129/29 104/130/29 101/127/29
f 106/134/29 108/135/29 105/132/29
f 111/136/29 113/137/29 110/138/29
f 115/115/29 117/141/29 114/139/29
f 120/142/29 122/143/29 119/144/29
f 124/137/29 126/147/29 123/145/29
f 129/148/29 131/149/29 128/150/29
f 133/154/29 135/155/29 132/152/29
f 138/156/29 140/157/29 137/158/29
f 142/162/29 144/163/29 141/160/29
f 147/164/29 149/165/29 146/166/29
f 151/170/29 153/171/29 150/168/29
f 156/172/29 158/170/29 155/167/29
f 160/176/29 162/177/29 159/174/29
f 165/178/29 167/179/29 164/180/29
f 169/183/29 171/184/29 168/181/29
f 30/78/29 33/82/29 32/79/29
f 34/84/29 37/87/29 36/85/29
f 39/85/29 42/88/29 41/86/29
f 43/90/29 46/99/29 45/91/29
f 48/92/29 51/95/29 50/93/29
f 52/86/29 55/89/29 54/97/29
f 57/91/29 60/100/29 59/98/29
f 61/102/29 64/109/29 63/103/29
f 66/97/29 69/105/29 68/104/29
f 70/98/29 73/101/29 72/107/29
f 75/103/29 78/110/29 77/108/29
f 79/112/29 82/185/29 81/113/29
f 84/114/29 87/118/29 86/115/29
f 88/120/29 91/186/29 90/121/29
f 93/122/29 96/126/29 95/123/29
f 97/128/29 100/131/29 99/129/29
f 102/129/29 105/132/29 104/130/29
f 106/134/29 109/187/29 108/135/29
f 111/136/29 114/139/29 113/137/29
f 115/115/29 118/119/29 117/141/29
f 120/142/29 123/145/29 122/143/29
f 124/137/29 127/140/29 126/147/29
f 129/148/29 132/152/29 131/149/29
f 133/154/29 136/188/29 135/155/29
f 138/156/29 141/160/29 140/157/29
f 142/162/29 145/189/29 144/163/29
f 147/164/29 150/168/29 149/165/29
f 151/170/29 154/175/29 153/171/29
f 156/172/29 159/174/29 158/170/29
f 160/176/29 163/190/29 162/177/29
f 165/178/29 168/181/29 167/179/29
f 169/183/29 172/191/29 171/184/29
