# Blender 4.3.2
# www.blender.org
mtllib pawn2.mtl
o White_Pawn.015
v 0.139778 3.597585 -0.438508
v 0.367392 3.048077 -0.438508
v 0.139778 2.498568 -0.438508
v -0.409730 2.270954 -0.438508
v -0.021169 3.597585 -0.049947
v 0.139778 3.048077 0.111001
v -0.021169 2.498568 -0.049947
v -0.409731 3.597585 0.111001
v -0.409731 3.048077 0.338615
v -0.409731 2.498568 0.111001
v -0.798292 3.597585 -0.049947
v -0.959239 3.048077 0.111000
v -0.798292 2.498568 -0.049947
v -0.959239 3.597585 -0.438508
v -1.186853 3.048077 -0.438508
v -0.959239 2.498568 -0.438508
v -0.798292 3.597585 -0.827069
v -0.959239 3.048077 -0.988017
v -0.798292 2.498568 -0.827069
v -0.409730 3.597585 -0.988016
v -0.409730 3.048077 -1.215630
v -0.409730 2.498568 -0.988016
v -0.409730 3.825199 -0.438508
v -0.021169 3.597585 -0.827069
v 0.139778 3.048077 -0.988016
v -0.021169 2.498568 -0.827069
v -0.409731 0.517700 0.310944
v -0.939673 0.517700 0.091435
v -1.159183 0.517700 -0.438508
v -0.939673 0.517700 -0.968451
v -0.409730 0.517700 -1.187960
v 0.120213 0.517700 -0.968450
v 0.339722 0.517700 -0.438507
v 0.120211 0.517700 0.091436
v -0.409731 0.280938 0.590492
v -1.137343 0.280938 0.289105
v -1.438730 0.280938 -0.438508
v -1.137343 0.280938 -1.166121
v -0.409730 0.280938 -1.467508
v 0.317883 0.280938 -1.166120
v 0.619269 0.280938 -0.438507
v 0.317881 0.280938 0.289106
v -0.409731 -0.399484 0.890830
v -0.409731 -0.779596 1.061492
v -1.470391 -0.779596 0.622152
v -1.349714 -0.399484 0.501476
v -1.909730 -0.779596 -0.438508
v -1.739068 -0.399484 -0.438508
v -1.470390 -0.779596 -1.499168
v -1.349714 -0.399484 -1.378492
v -0.409730 -0.779596 -1.938508
v -0.409730 -0.399484 -1.767846
v 0.650931 -0.779596 -1.499167
v 0.530254 -0.399484 -1.378491
v 1.090270 -0.779596 -0.438506
v 0.919607 -0.399484 -0.438506
v 0.650928 -0.779596 0.622154
v 0.530252 -0.399484 0.501477
v -0.409731 -0.317774 0.705493
v -1.218661 -0.317774 0.370423
v -1.553731 -0.317774 -0.438508
v -1.218661 -0.317774 -1.247439
v -0.409730 -0.317774 -1.582509
v 0.399201 -0.317774 -1.247438
v 0.734270 -0.317774 -0.438507
v 0.399199 -0.317774 0.370424
v -0.409731 0.011483 0.980586
v -1.413181 0.011483 0.564943
v -1.828824 0.011483 -0.438508
v -1.413181 0.011483 -1.441959
v -0.409730 0.011483 -1.857602
v 0.593721 0.011483 -1.441958
v 1.009363 0.011483 -0.438506
v 0.593719 0.011483 0.564944
v -0.409731 0.456803 0.486419
v -1.063753 0.456803 0.215514
v -1.334657 0.456803 -0.438508
v -1.063752 0.456803 -1.092530
v -0.409730 0.456803 -1.363435
v 0.244292 0.456803 -1.092529
v 0.515196 0.456803 -0.438507
v 0.244290 0.456803 0.215515
v -0.771681 2.021917 -0.800459
v -0.921606 2.021917 -0.438508
v -0.409730 2.021917 -0.950384
v -0.771682 2.021917 -0.076557
v -0.409731 2.021917 0.073368
v -0.047779 2.021917 -0.800458
v 0.102145 2.021917 -0.438507
v -0.047780 2.021917 -0.076556
v -1.035349 2.168917 -1.064126
v -1.294488 2.168917 -0.438508
v -0.409730 2.168917 -1.323266
v -1.035349 2.168917 0.187110
v -0.409731 2.168917 0.446250
v 0.215888 2.168917 -1.064126
v 0.475027 2.168917 -0.438507
v 0.215887 2.168917 0.187111
v -0.570342 2.417032 -0.599119
v -0.636869 2.417032 -0.438508
v -0.409730 2.417032 -0.665646
v -0.570342 2.417032 -0.277896
v -0.409730 2.417032 -0.211369
v -0.249119 2.417032 -0.599119
v -0.182592 2.417032 -0.438507
v -0.249120 2.417032 -0.277896
vn 0.7486 0.6630 -0.0000
vn 1.0000 -0.0000 -0.0000
vn 0.7486 -0.6630 -0.0000
vn -0.0000 -1.0000 -0.0000
vn 0.5294 0.6630 0.5294
vn 0.7071 -0.0000 0.7071
vn 0.5294 -0.6630 0.5294
vn -0.0000 0.6630 0.7486
vn -0.0000 -0.0000 1.0000
vn -0.0000 -0.6630 0.7486
vn -0.5294 0.6630 0.5294
vn -0.7071 -0.0000 0.7071
vn -0.5294 -0.6630 0.5294
vn -0.7486 0.6630 -0.0000
vn -1.0000 -0.0000 -0.0000
vn -0.7486 -0.6630 -0.0000
vn -0.5294 0.6630 -0.5294
vn -0.7071 -0.0000 -0.7071
vn -0.5294 -0.6630 -0.5294
vn -0.0000 0.6630 -0.7486
vn -0.0000 -0.0000 -1.0000
vn -0.0000 -0.6630 -0.7486
vn -0.0000 1.0000 -0.0000
vn 0.5294 0.6630 -0.5294
vn 0.7071 -0.0000 -0.7071
vn 0.5294 -0.6630 -0.5294
vn -0.0000 0.7111 0.7031
vn -0.4971 0.7111 0.4971
vn -0.7031 0.7111 -0.0000
vn -0.4971 0.7111 -0.4971
vn -0.0000 0.7111 -0.7031
vn 0.4971 0.7111 -0.4972
vn 0.7031 0.7111 -0.0000
vn 0.4971 0.7111 0.4971
vn -0.0000 0.7093 0.7049
vn -0.4984 0.7093 0.4984
vn -0.7049 0.7093 -0.0000
vn -0.4984 0.7093 -0.4984
vn -0.0000 0.7093 -0.7049
vn 0.4984 0.7093 -0.4984
vn 0.7049 0.7093 -0.0000
vn 0.4984 0.7093 0.4984
vn -0.0000 0.6680 0.7442
vn -0.0000 -0.4667 0.8844
vn -0.6254 -0.4667 0.6254
vn -0.5262 0.6680 0.5262
vn -0.8844 -0.4667 -0.0000
vn -0.7442 0.6680 -0.0000
vn -0.6254 -0.4667 -0.6254
vn -0.5262 0.6680 -0.5262
vn -0.0000 -0.4667 -0.8844
vn -0.0000 0.6680 -0.7442
vn 0.6254 -0.4667 -0.6254
vn 0.5262 0.6680 -0.5262
vn 0.8844 -0.4668 -0.0000
vn 0.7442 0.6680 -0.0000
vn 0.6254 -0.4667 0.6254
vn 0.5262 0.6680 0.5262
vn -0.0000 0.2874 0.9578
vn -0.6773 0.2873 0.6773
vn -0.9578 0.2873 -0.0000
vn -0.6773 0.2873 -0.6773
vn -0.0000 0.2873 -0.9578
vn 0.6773 0.2873 -0.6773
vn 0.9578 0.2873 -0.0000
vn 0.6773 0.2873 0.6773
vn -0.0000 0.1156 0.9933
vn -0.7024 0.1156 0.7024
vn -0.9933 0.1157 -0.0000
vn -0.7024 0.1156 -0.7024
vn -0.0000 0.1156 -0.9933
vn 0.7024 0.1156 -0.7024
vn 0.9933 0.1156 -0.0000
vn 0.7024 0.1156 0.7024
vn -0.0000 0.7344 0.6788
vn -0.4800 0.7344 0.4800
vn -0.6788 0.7344 -0.0000
vn -0.4800 0.7344 -0.4800
vn -0.0000 0.7344 -0.6788
vn 0.4800 0.7344 -0.4800
vn 0.6788 0.7344 -0.0000
vn 0.4800 0.7344 0.4800
vn -0.5781 -0.5759 -0.5781
vn -0.8175 -0.5759 -0.0000
vn -0.0000 -0.5759 -0.8175
vn -0.5781 -0.5759 0.5781
vn -0.0000 -0.5759 0.8175
vn 0.5781 -0.5759 -0.5781
vn 0.8175 -0.5759 -0.0000
vn 0.5781 -0.5759 0.5781
vn -0.7071 0.0061 -0.7071
vn -1.0000 0.0061 -0.0000
vn -0.0000 0.0061 -1.0000
vn -0.7071 0.0061 0.7071
vn -0.0000 0.0060 1.0000
vn 0.7071 0.0061 -0.7071
vn 1.0000 0.0061 -0.0000
vn 0.7071 0.0061 0.7071
vn -0.1570 0.9750 -0.1570
vn -0.2220 0.9750 -0.0000
vn -0.0000 0.9750 -0.2220
vn -0.1570 0.9750 0.1570
vn -0.0000 0.9750 0.2220
vn 0.1570 0.9750 -0.1570
vn 0.2220 0.9750 -0.0000
vn 0.1570 0.9750 0.1570
vt 0.722542 -0.000000
vt 0.781982 0.081459
vt 0.704583 0.074684
vt 0.710306 0.139786
vt 0.765036 0.144577
vt 0.400903 0.779331
vt 0.428373 0.845649
vt 0.362055 0.818179
vt 0.561008 0.845649
vt 0.588478 0.911966
vt 0.533538 0.911966
vt 0.804451 0.139786
vt 0.362055 0.873119
vt 0.494690 0.873119
vt 0.777272 0.004791
vt 0.837725 0.074684
vt 0.817960 0.511226
vt 0.884277 0.446871
vt 0.872899 0.511226
vt 0.400903 0.911966
vt 0.494690 0.818179
vt 0.817960 0.370905
vt 0.806581 0.446871
vt 0.585305 0.502632
vt 0.669481 0.475162
vt 0.657870 0.530101
vt 0.725626 0.502632
vt 0.733836 0.463784
vt 0.455843 0.911966
vt 0.533538 0.779331
vt 0.588478 0.779331
vt 0.593515 0.463784
vt 0.669481 0.397466
vt 0.733836 0.408845
vt 0.494691 0.873119
vt 0.627325 0.818179
vt 0.585305 0.369997
vt 0.657870 0.342527
vt 0.725626 0.369997
vt 0.494691 0.818179
vt 0.627325 0.873119
vt 0.789164 0.843320
vt 0.861853 0.773427
vt 0.866564 0.850095
vt 0.849617 0.913213
vt 0.794887 0.908422
vt 0.455843 0.779331
vt 0.901269 0.768636
vt 0.922306 0.843320
vt 0.889033 0.908422
vt 0.731181 0.247455
vt 0.731181 0.319133
vt 0.704583 0.249701
vt 0.346329 0.438858
vt 0.329834 0.538351
vt 0.320863 0.435865
vt 0.329834 0.362055
vt 0.909744 0.447708
vt 0.893248 0.547201
vt 0.884277 0.444714
vt 0.917808 0.381363
vt 0.893248 0.370905
vt 0.321820 0.699047
vt 0.256803 0.790512
vt 0.269881 0.682918
vt 0.217619 0.660551
vt 0.320863 0.588940
vt 0.226884 0.682918
vt 0.298495 0.465299
vt 0.320863 0.456034
vt 0.353992 0.642580
vt 0.337496 0.742073
vt 0.328525 0.639586
vt 0.657504 0.222703
vt 0.704583 0.100324
vt 0.704583 0.242203
vt 0.584758 0.295449
vt 0.604259 0.342527
vt 0.362056 0.576235
vt 0.337496 0.565777
vt 0.584758 0.047079
vt 0.604259 0.000000
vt 0.987868 0.558877
vt 0.934983 0.417440
vt 0.987868 0.408908
vt 0.022367 0.579675
vt 0.093979 0.682918
vt 0.000000 0.588940
vt 0.103244 0.660551
vt 0.481880 0.295449
vt 0.462380 0.342527
vt 0.481880 0.047079
vt 0.362055 0.100324
vt 0.462379 -0.000000
vt 0.409134 0.222703
vt 0.362056 0.242203
vt 0.409134 0.119824
vt 0.965457 0.664920
vt 0.934983 0.550345
vt 0.093978 0.362055
vt 0.022367 0.465299
vt -0.000000 0.456034
vt 0.806581 0.274090
vt 0.733836 0.188642
vt 0.784171 0.168046
vt 0.362055 0.742073
vt 0.327033 0.870200
vt 0.327033 0.755825
vt 0.940970 -0.000000
vt 0.907770 0.128127
vt 0.907770 0.013752
vt 0.986922 0.408908
vt 0.946573 0.263398
vt 1.000000 0.259511
vt 0.728748 0.921211
vt 0.761947 0.793083
vt 0.761947 0.907459
vt 0.872748 0.013752
vt 0.907770 0.141879
vt 0.872748 0.128128
vt 0.753697 0.415527
vt 0.806581 0.424058
vt 0.662348 0.793083
vt 0.695548 0.921211
vt 0.662348 0.907459
vt 0.872748 0.128128
vt 0.837725 0.000000
vt 0.872748 0.013752
vt 0.106043 0.362055
vt 0.000000 0.106044
vt 0.256012 0.000000
vt 0.564128 0.491617
vt 0.585305 0.407916
vt 0.585305 0.500389
vt 0.511145 0.544600
vt 0.519917 0.565777
vt 0.519917 0.342527
vt 0.436216 0.363704
vt 0.427444 0.342527
vt 0.511145 0.363704
vt 0.733836 0.509505
vt 0.784171 0.530101
vt 0.695548 0.921211
vt 0.728748 0.793083
vt 0.728748 0.907459
vt 0.627326 0.921211
vt 0.128402 0.879243
vt 0.048312 0.687381
vt 0.099294 0.682918
vt 0.436216 0.544600
vt 0.427444 0.565777
vt 0.383233 0.416687
vt 0.362055 0.407916
vt 0.729691 0.149780
vt 0.704583 0.247455
vt 0.704583 0.144577
vt 0.383233 0.491617
vt 0.362055 0.500389
vt 0.310231 0.794399
vt 0.269881 0.939909
vt 0.217619 0.384423
vt 0.226884 0.362055
vt 0.103243 0.384423
vt 0.530608 0.646966
vt 0.513061 0.565777
vt 0.575610 0.628326
vt 0.789164 0.762102
vt 0.837476 0.570240
vt 0.842922 0.768636
vt 0.182159 0.885777
vt 0.227696 0.682918
vt 0.256803 0.879243
vt 0.860339 0.370905
vt 0.905875 0.168046
vt 0.934983 0.364371
vt 0.128402 0.879243
vt 0.176714 0.687381
vt 0.888458 0.565777
vt 0.917566 0.762102
vt 0.818177 0.168046
vt 0.854894 0.172509
vt 0.053758 0.885777
vt 0.011596 0.682918
vt 0.789164 0.716783
vt 0.693742 0.699966
vt 0.709799 0.683909
vt 0.494421 0.734330
vt 0.424604 0.779331
vt 0.443244 0.734330
vt 0.575610 0.716783
vt 0.530608 0.698143
vt 0.443244 0.610778
vt 0.362055 0.628326
vt 0.424604 0.565777
vt 0.494421 0.610778
vt 0.362055 0.716783
vt 0.407057 0.698143
vt 0.513061 0.779331
vt 0.407057 0.646966
vt 0.671032 0.699966
vt 0.654975 0.661200
vt 0.638159 0.779331
vt 0.654975 0.683909
vt 0.709799 0.661200
vt 0.789164 0.628326
vt 0.638158 0.565777
vt 0.575610 0.628326
vt 0.726616 0.779331
vt 0.575610 0.716783
vt 0.693741 0.645142
vt 0.726615 0.565777
vt 0.671032 0.645142
vt 0.816688 -0.000000
vt 0.872899 0.370905
vt 0.593515 0.408845
vt 0.807123 0.768636
vt 0.761947 0.779331
vt 0.783763 0.842503
vt 0.761947 0.857885
vt 0.354393 0.530979
vt 0.354393 0.372514
vt 0.917808 0.539828
vt 0.298495 0.579675
vt 0.362056 0.734701
vt 0.657504 0.119824
vt 0.934983 0.168046
vt 0.753697 0.282621
vt 0.362055 0.883952
vt 0.940970 0.141879
vt 0.934983 0.395798
vt 0.728748 0.779331
vt 0.907770 -0.000000
vt 0.695548 0.779331
vt 0.837725 0.141879
vt 0.362055 0.106044
vt 0.362055 0.256012
vt 0.256012 0.362056
vt 0.000000 0.256012
vt 0.106044 0.000000
vt 0.564128 0.416687
vt 0.695548 0.779331
vt 0.627326 0.779331
vt 0.729691 0.242253
vt 0.321820 0.926798
vt 0.800760 0.565777
vt 0.139998 0.682918
vt 0.806581 0.364371
vt -0.000000 0.879243
s 1
g White_Pawn.015_Black_Pieces
usemtl Black_Pieces
f 1/1/1 6/2/6 2/3/2
f 3/4/3 6/2/6 7/5/7
f 1/6/1 23/7/23 5/8/5
f 4/9/4 3/10/3 7/11/7
f 6/2/6 10/12/10 7/5/7
f 5/8/5 23/7/23 8/13/8
f 4/9/4 7/11/7 10/14/10
f 5/15/5 9/16/9 6/2/6
f 10/17/10 12/18/12 13/19/13
f 8/13/8 23/7/23 11/20/11
f 4/9/4 10/14/10 13/21/13
f 8/22/8 12/18/12 9/23/9
f 11/24/11 15/25/15 12/26/12
f 13/27/13 15/25/15 16/28/16
f 11/20/11 23/7/23 14/29/14
f 4/9/4 13/21/13 16/30/16
f 4/9/4 16/30/16 19/31/19
f 14/32/14 18/33/18 15/25/15
f 15/25/15 19/34/19 16/28/16
f 14/29/14 23/7/23 17/35/17
f 4/9/4 19/31/19 22/36/22
f 18/33/18 20/37/20 21/38/21
f 18/33/18 22/39/22 19/34/19
f 17/35/17 23/7/23 20/40/20
f 4/9/4 22/36/22 26/41/26
f 21/42/21 24/43/24 25/44/25
f 21/42/21 26/45/26 22/46/22
f 20/40/20 23/7/23 24/47/24
f 4/9/4 26/41/26 3/10/3
f 25/44/25 1/48/1 2/49/2
f 25/44/25 3/50/3 26/45/26
f 24/47/24 23/7/23 1/6/1
f 76/51/76 37/52/37 36/53/36
f 81/54/81 42/55/42 41/56/41
f 40/57/40 81/54/81 41/56/41
f 75/58/75 36/59/36 35/60/35
f 82/61/82 35/60/35 42/62/42
f 54/63/54 55/64/55 53/65/53
f 66/66/66 43/67/43 58/68/58
f 43/67/43 60/69/60 46/70/46
f 79/71/79 40/72/40 39/73/39
f 36/74/36 69/75/69 68/76/68
f 35/77/35 68/76/68 67/78/67
f 78/79/78 39/73/39 38/80/38
f 69/75/69 38/81/38 70/82/70
f 51/83/51 54/84/54 53/85/53
f 64/86/64 56/87/56 54/88/54
f 65/89/65 58/68/58 56/87/56
f 42/90/42 67/78/67 74/91/74
f 39/92/39 72/93/72 71/94/71
f 70/82/70 39/92/39 71/94/71
f 41/95/41 74/91/74 73/96/73
f 40/97/40 73/96/73 72/93/72
f 49/98/49 52/99/52 51/83/51
f 50/100/50 63/101/63 52/102/52
f 52/102/52 64/86/64 54/88/54
f 45/103/45 48/104/48 47/105/47
f 69/106/69 62/107/62 61/108/61
f 74/109/74 59/110/59 66/111/66
f 47/112/47 50/113/50 49/114/49
f 68/115/68 61/116/61 60/117/60
f 59/118/59 68/119/68 60/120/60
f 43/121/43 45/103/45 44/122/44
f 64/123/64 73/124/73 65/125/65
f 65/126/65 74/127/74 66/128/66
f 57/129/57 45/130/45 49/131/49
f 27/132/27 76/133/76 75/134/75
f 34/135/34 75/134/75 82/136/82
f 77/137/77 30/138/30 78/139/78
f 76/133/76 29/140/29 77/137/77
f 58/141/58 44/122/44 57/142/57
f 70/143/70 63/144/63 62/145/62
f 71/146/71 64/123/64 63/125/63
f 34/147/34 89/148/89 90/149/90
f 33/150/33 82/136/82 81/151/81
f 78/139/78 31/152/31 79/153/79
f 77/154/77 38/155/38 37/156/37
f 32/157/32 81/151/81 80/158/80
f 31/152/31 80/158/80 79/153/79
f 56/159/56 57/160/57 55/64/55
f 46/70/46 61/161/61 48/162/48
f 48/162/48 62/163/62 50/100/50
f 85/164/85 91/165/91 93/166/93
f 28/167/28 84/168/84 29/169/29
f 31/170/31 88/171/88 32/172/32
f 27/173/27 86/174/86 28/175/28
f 30/176/30 85/177/85 31/170/31
f 29/169/29 83/178/83 30/179/30
f 27/173/27 90/180/90 87/181/87
f 33/182/33 88/183/88 89/148/89
f 95/184/95 106/185/106 103/186/103
f 89/187/89 98/188/98 90/189/90
f 85/164/85 96/190/96 88/191/88
f 84/192/84 94/193/94 92/194/92
f 83/195/83 92/194/92 91/165/91
f 90/189/90 95/196/95 87/197/87
f 88/191/88 97/198/97 89/187/89
f 86/199/86 95/196/95 94/193/94
f 103/186/103 105/200/105 101/201/101
f 97/202/97 104/203/104 105/200/105
f 95/184/95 102/204/102 94/205/94
f 91/206/91 101/201/101 93/207/93
f 98/208/98 105/200/105 106/185/106
f 96/209/96 101/201/101 104/203/104
f 94/205/94 100/210/100 92/211/92
f 92/211/92 99/212/99 91/206/91
f 1/1/1 5/15/5 6/2/6
f 3/4/3 2/3/2 6/2/6
f 6/2/6 9/16/9 10/12/10
f 5/15/5 8/213/8 9/16/9
f 10/17/10 9/23/9 12/18/12
f 8/22/8 11/214/11 12/18/12
f 11/24/11 14/32/14 15/25/15
f 13/27/13 12/26/12 15/25/15
f 14/32/14 17/215/17 18/33/18
f 15/25/15 18/33/18 19/34/19
f 18/33/18 17/215/17 20/37/20
f 18/33/18 21/38/21 22/39/22
f 21/42/21 20/216/20 24/43/24
f 21/42/21 25/44/25 26/45/26
f 25/44/25 24/43/24 1/48/1
f 25/44/25 2/49/2 3/50/3
f 76/217/76 77/218/77 37/219/37
f 81/54/81 82/220/82 42/55/42
f 40/57/40 80/221/80 81/54/81
f 75/58/75 76/222/76 36/59/36
f 82/61/82 75/58/75 35/60/35
f 54/63/54 56/159/56 55/64/55
f 66/66/66 59/223/59 43/67/43
f 43/67/43 59/223/59 60/69/60
f 79/71/79 80/224/80 40/72/40
f 36/74/36 37/225/37 69/75/69
f 35/77/35 36/74/36 68/76/68
f 78/79/78 79/71/79 39/73/39
f 69/75/69 37/225/37 38/81/38
f 51/83/51 52/99/52 54/84/54
f 64/86/64 65/89/65 56/87/56
f 65/89/65 66/66/66 58/68/58
f 42/90/42 35/77/35 67/78/67
f 39/92/39 40/97/40 72/93/72
f 70/82/70 38/81/38 39/92/39
f 41/95/41 42/90/42 74/91/74
f 40/97/40 41/95/41 73/96/73
f 49/114/49 50/113/50 52/226/52
f 50/100/50 62/163/62 63/101/63
f 52/102/52 63/101/63 64/86/64
f 45/103/45 46/227/46 48/104/48
f 69/106/69 70/228/70 62/107/62
f 74/109/74 67/229/67 59/110/59
f 47/112/47 48/230/48 50/113/50
f 68/115/68 69/231/69 61/116/61
f 59/118/59 67/232/67 68/119/68
f 43/121/43 46/227/46 45/103/45
f 64/123/64 72/233/72 73/124/73
f 65/126/65 73/234/73 74/127/74
f 49/131/49 51/235/51 53/236/53
f 53/236/53 55/237/55 49/131/49
f 55/237/55 57/129/57 49/131/49
f 57/129/57 44/238/44 45/130/45
f 45/130/45 47/239/47 49/131/49
f 27/132/27 28/240/28 76/133/76
f 34/135/34 27/132/27 75/134/75
f 77/137/77 29/140/29 30/138/30
f 76/133/76 28/240/28 29/140/29
f 58/141/58 43/121/43 44/122/44
f 70/143/70 71/241/71 63/144/63
f 71/146/71 72/242/72 64/123/64
f 34/147/34 33/182/33 89/148/89
f 33/150/33 34/135/34 82/136/82
f 78/139/78 30/138/30 31/152/31
f 77/154/77 78/243/78 38/155/38
f 32/157/32 33/150/33 81/151/81
f 31/152/31 32/157/32 80/158/80
f 56/159/56 58/244/58 57/160/57
f 46/70/46 60/69/60 61/161/61
f 48/162/48 61/161/61 62/163/62
f 85/164/85 83/195/83 91/165/91
f 28/167/28 86/245/86 84/168/84
f 31/170/31 85/177/85 88/171/88
f 27/173/27 87/181/87 86/174/86
f 30/176/30 83/246/83 85/177/85
f 29/169/29 84/168/84 83/178/83
f 27/173/27 34/247/34 90/180/90
f 33/182/33 32/248/32 88/183/88
f 95/184/95 98/208/98 106/185/106
f 89/187/89 97/198/97 98/188/98
f 85/164/85 93/166/93 96/190/96
f 84/192/84 86/199/86 94/193/94
f 83/195/83 84/192/84 92/194/92
f 90/189/90 98/188/98 95/196/95
f 88/191/88 96/190/96 97/198/97
f 86/199/86 87/197/87 95/196/95
f 101/201/101 99/212/99 100/210/100
f 100/210/100 102/204/102 103/186/103
f 103/186/103 106/185/106 105/200/105
f 105/200/105 104/203/104 101/201/101
f 101/201/101 100/210/100 103/186/103
f 97/202/97 96/209/96 104/203/104
f 95/184/95 103/186/103 102/204/102
f 91/206/91 99/212/99 101/201/101
f 98/208/98 97/202/97 105/200/105
f 96/209/96 93/207/93 101/201/101
f 94/205/94 102/204/102 100/210/100
f 92/211/92 100/210/100 99/212/99
