# Blender 4.3.2
# www.blender.org
mtllib tower2.mtl
o LPRook.002
v 0.372967 4.106379 -0.438508
v 0.143720 4.106379 0.114942
v -0.409730 4.106379 0.344189
v -0.963180 4.106379 0.114942
v -1.192427 4.106379 -0.438508
v -0.963180 4.106379 -0.991958
v -0.409729 4.106379 -1.221205
v 0.143721 4.106379 -0.991957
v 0.913100 1.280938 -0.438508
v 0.525652 1.280938 0.496875
v -0.409731 1.280938 0.884322
v -1.345113 1.280938 0.496874
v -1.732561 1.280938 -0.438509
v -1.345112 1.280938 -1.373891
v -0.409729 1.280938 -1.761338
v 0.525653 1.280938 -1.373889
v 0.934147 0.600516 -0.438508
v 1.090270 0.220404 -0.438508
v 0.650929 0.220404 0.622152
v 0.540534 0.600516 0.511757
v -0.409731 0.220404 1.061492
v -0.409731 0.600516 0.905369
v -1.470391 0.220404 0.622152
v -1.359995 0.600516 0.511757
v -1.909730 0.220404 -0.438509
v -1.753608 0.600516 -0.438509
v -1.470390 0.220404 -1.499169
v -1.359994 0.600516 -1.388774
v -0.409729 0.220404 -1.938508
v -0.409729 0.600516 -1.782385
v 0.650931 0.220404 -1.499167
v 0.540536 0.600516 -1.388771
v 0.734270 0.682226 -0.438508
v 0.399200 0.682226 0.370423
v -0.409730 0.682226 0.705493
v -1.218661 0.682226 0.370422
v -1.553731 0.682226 -0.438509
v -1.218660 0.682226 -1.247439
v -0.409729 0.682226 -1.582509
v 0.399202 0.682226 -1.247437
v 1.009363 1.103530 -0.438508
v 0.593720 1.103530 0.564943
v -0.409731 1.103530 0.980586
v -1.413182 1.103530 0.564942
v -1.828824 1.103530 -0.438509
v -1.413180 1.103530 -1.441960
v -0.409729 1.103530 -1.857602
v 0.593722 1.103530 -1.441957
v 0.556225 1.869001 -0.438508
v 0.273303 1.869001 0.244526
v -0.409730 1.869001 0.527447
v -1.092764 1.869001 0.244525
v -1.375685 1.869001 -0.438509
v -1.092763 1.869001 -1.121542
v -0.409729 1.869001 -1.404463
v 0.273304 1.869001 -1.121540
v -1.179026 4.265436 0.330788
v -0.409730 4.265436 0.649441
v -1.497679 4.265436 -0.438509
v 0.359565 4.265436 0.330788
v 0.678218 4.265436 -0.438508
v -1.179025 4.265436 -1.207804
v -0.409729 4.265436 -1.526456
v 0.359567 4.265436 -1.207803
v -0.964723 4.610059 0.116485
v -0.409730 4.610059 0.346371
v -1.194609 4.610059 -0.438508
v 0.145263 4.610059 0.116485
v 0.375149 4.610059 -0.438508
v -0.964723 4.610059 -0.993501
v -0.409729 4.610059 -1.223387
v 0.145264 4.610059 -0.993500
v -1.179026 4.610059 0.330788
v -0.409730 4.610059 0.649441
v -1.497679 4.610059 -0.438509
v 0.359565 4.610059 0.330788
v 0.678218 4.610059 -0.438508
v -1.179025 4.610059 -1.207804
v -0.409729 4.610059 -1.526456
v 0.359567 4.610059 -1.207803
v -1.179026 4.840059 0.330788
v -0.409730 4.840059 0.649441
v 0.359565 4.840059 0.330788
v 0.678218 4.840059 -0.438508
v -1.179025 4.840059 -1.207804
v -1.497679 4.840059 -0.438509
v 0.359567 4.840059 -1.207803
v -0.409729 4.840059 -1.526456
v -0.964723 4.840059 0.116485
v -0.409730 4.840059 0.346371
v 0.145263 4.840059 0.116485
v 0.375149 4.840059 -0.438508
v -0.964723 4.840059 -0.993501
v -1.194609 4.840059 -0.438508
v 0.145264 4.840059 -0.993500
v -0.409729 4.840059 -1.223387
v -0.964723 4.440059 0.116485
v -0.409730 4.440059 0.346371
v -1.194609 4.440059 -0.438508
v 0.145263 4.440059 0.116485
v 0.375149 4.440059 -0.438508
v -0.964723 4.440059 -0.993501
v -0.409729 4.440059 -1.223387
v 0.145264 4.440059 -0.993500
vn 0.8345 -0.5510 -0.0000
vn 0.5901 -0.5510 0.5901
vn -0.0000 -0.5510 0.8345
vn -0.5901 -0.5510 0.5901
vn -0.8345 -0.5510 -0.0000
vn -0.5901 -0.5510 -0.5901
vn -0.0000 -0.5510 -0.8345
vn 0.5901 -0.5510 -0.5901
vn 0.8686 0.4955 -0.0000
vn 0.6142 0.4955 0.6142
vn -0.0000 0.4955 0.8686
vn -0.6142 0.4955 0.6142
vn -0.8686 0.4955 -0.0000
vn -0.6142 0.4955 -0.6142
vn -0.0000 0.4955 -0.8686
vn 0.6142 0.4955 -0.6142
vn 0.7484 0.6632 -0.0000
vn 0.8775 -0.4795 -0.0000
vn 0.6205 -0.4795 0.6205
vn 0.5292 0.6632 0.5292
vn -0.0000 -0.4795 0.8775
vn -0.0000 0.6632 0.7484
vn -0.6205 -0.4795 0.6205
vn -0.5292 0.6632 0.5292
vn -0.8775 -0.4795 -0.0000
vn -0.7484 0.6632 -0.0000
vn -0.6205 -0.4795 -0.6205
vn -0.5292 0.6632 -0.5292
vn -0.0000 -0.4796 -0.8775
vn -0.0000 0.6632 -0.7484
vn 0.6205 -0.4795 -0.6205
vn 0.5292 0.6632 -0.5292
vn 0.9293 0.3693 -0.0000
vn 0.6571 0.3693 0.6571
vn -0.0000 0.3693 0.9293
vn -0.6571 0.3693 0.6571
vn -0.9293 0.3693 -0.0000
vn -0.6571 0.3693 -0.6571
vn -0.0000 0.3693 -0.9293
vn 0.6571 0.3693 -0.6571
vn 0.9993 -0.0364 -0.0000
vn 0.7066 -0.0364 0.7066
vn -0.0000 -0.0364 0.9993
vn -0.7066 -0.0364 0.7066
vn -0.9993 -0.0364 -0.0000
vn -0.7066 -0.0363 -0.7066
vn -0.0000 -0.0364 -0.9993
vn 0.7066 -0.0364 -0.7066
vn 0.9453 0.3263 -0.0000
vn 0.6684 0.3263 0.6684
vn -0.0000 0.3263 0.9453
vn -0.6684 0.3263 0.6684
vn -0.9453 0.3263 -0.0000
vn -0.6684 0.3263 -0.6684
vn -0.0000 0.3263 -0.9453
vn 0.6684 0.3263 -0.6684
vn -0.6244 -0.4693 0.6244
vn -0.0000 -0.4693 0.8830
vn -0.8830 -0.4693 -0.0000
vn 0.6244 -0.4693 0.6244
vn 0.8830 -0.4693 -0.0000
vn -0.6244 -0.4693 -0.6244
vn -0.0000 -0.4693 -0.8830
vn 0.6244 -0.4693 -0.6244
vn 0.2940 0.3743 -0.8795
vn 0.4140 0.3743 -0.8298
vn 0.8298 0.3742 0.4140
vn -0.8795 0.3742 -0.2940
vn -0.8298 0.3742 -0.4140
vn 0.8795 0.3742 0.2940
vn -0.4140 0.3743 0.8298
vn -0.2940 0.3743 0.8795
vn -0.8159 0.2554 0.5187
vn 0.2102 0.2554 0.9437
vn -0.9437 0.2554 0.2102
vn 0.5187 0.2554 0.8160
vn 0.9437 0.2554 -0.2102
vn -0.5187 0.2554 -0.8160
vn -0.2102 0.2554 -0.9437
vn 0.8159 0.2554 -0.5187
vn -0.8129 0.5595 0.1617
vn 0.4605 0.5595 0.6892
vn 0.1617 0.5595 0.8129
vn 0.6892 0.5595 -0.4605
vn -0.1617 0.5595 -0.8129
vn -0.6892 0.5595 0.4605
vn 0.8129 0.5595 -0.1617
vn -0.4605 0.5594 -0.6892
vn -0.1560 0.6008 -0.7840
vn 0.6646 0.6009 -0.4441
vn -0.7840 0.6008 0.1560
vn -0.4441 0.6009 -0.6646
vn 0.7840 0.6008 -0.1560
vn 0.4441 0.6009 0.6646
vn 0.1560 0.6009 0.7840
vn -0.6646 0.6009 0.4441
vn 0.5490 0.6303 -0.5490
vn -0.0000 0.6303 -0.7764
vn 0.7764 0.6303 -0.0000
vn -0.5490 0.6303 -0.5490
vn -0.7764 0.6303 -0.0000
vn 0.5490 0.6303 0.5490
vn -0.0000 0.6303 0.7764
vn -0.5490 0.6303 0.5490
vt 0.228076 0.362861
vt 0.276546 0.280581
vt 0.317925 0.355536
vt 0.444060 0.632119
vt 0.556519 0.705297
vt 0.429526 0.709585
vt 0.378307 0.628987
vt 0.339481 0.705297
vt 0.118151 0.285930
vt 0.101011 0.362861
vt 0.052541 0.280581
vt 0.011162 0.355536
vt 0.984668 0.364316
vt 0.931064 0.449954
vt 0.935927 0.347849
vt 0.023176 0.646827
vt 0.091279 0.747705
vt 0.000000 0.656427
vt 0.210766 0.724530
vt 0.220366 0.747705
vt 0.799375 0.706376
vt 0.909301 0.629445
vt 0.926441 0.706376
vt 0.329087 0.378104
vt 0.232700 0.385962
vt 0.096387 0.385962
vt 0.694313 0.709585
vt 0.745532 0.628987
vt 0.784358 0.705297
vt 0.561920 0.728229
vt 0.698154 0.732829
vt 0.400964 0.919039
vt 0.449986 0.782453
vt 0.449986 0.926537
vt 0.100878 0.459236
vt 0.000000 0.527339
vt 0.091279 0.436061
vt 0.023176 0.536939
vt -0.000000 0.378104
vt 0.794752 0.729477
vt 0.931064 0.729477
vt 0.794752 0.728229
vt 0.425685 0.732829
vt 0.329087 0.728229
vt 0.984668 0.696061
vt 0.931064 0.610423
vt 0.979806 0.593956
vt 0.311645 0.527339
vt 0.210766 0.459236
vt 0.220366 0.436061
vt 0.985695 0.101883
vt 0.929231 0.018102
vt 0.977389 0.000000
vt 0.683259 0.782453
vt 0.573433 0.778744
vt 0.031897 0.429726
vt 0.109599 0.436061
vt 0.979806 0.840063
vt 0.935421 0.701901
vt 0.297190 0.429726
vt 0.219487 0.436061
vt 0.936673 0.238468
vt 0.985695 0.245967
vt 0.362708 0.778744
vt 0.440580 0.782453
vt 0.550406 0.778744
vt 0.430970 0.347849
vt 0.329087 0.101883
vt 0.575054 0.000000
vt 0.126952 0.004334
vt 0.210936 0.285930
vt 0.073790 0.000000
vt 0.587047 0.628987
vt 0.680487 0.350387
vt 0.679779 0.632119
vt 0.202135 0.004334
vt 0.929231 0.329747
vt 0.977389 0.347849
vt 0.761131 0.778744
vt 0.917852 0.779576
vt 0.807964 0.779576
vt 0.765492 0.216901
vt 0.676936 0.178399
vt 0.712330 0.163739
vt 0.443352 0.350387
vt 0.536793 0.628987
vt 0.567320 0.705297
vt 0.390074 0.347849
vt 0.825317 0.347849
vt 0.816515 0.629445
vt 0.980312 0.455794
vt 0.935927 0.593956
vt 0.288469 0.646827
vt 0.311645 0.656427
vt 0.288469 0.536939
vt 0.247866 1.000000
vt 0.210783 0.926105
vt 0.253890 0.926105
vt 0.893837 0.163739
vt 0.855335 0.252295
vt 0.840675 0.216901
vt 0.750831 0.252295
vt 0.765492 0.035394
vt 0.676936 0.073895
vt 0.750832 -0.000000
vt 0.929231 0.073895
vt 0.929231 0.178399
vt 0.712330 0.088556
vt 0.893837 0.088556
vt 0.855336 -0.000000
vt 0.840675 0.035394
vt 0.473783 0.858773
vt 0.449986 0.784142
vt 0.471239 0.783424
vt 0.319743 0.926105
vt 0.282660 0.852209
vt 0.325767 0.852209
vt 0.210783 0.821601
vt 0.253890 0.821601
vt 0.866629 0.853471
vt 0.817497 0.779576
vt 0.860605 0.779576
vt 0.282660 0.747705
vt 0.325767 0.747705
vt 0.400964 0.886957
vt 0.357857 0.782453
vt 0.400964 0.782453
vt 0.204758 0.747705
vt 0.247866 0.747705
vt 0.866629 0.957975
vt 0.823522 0.853471
vt 0.755724 0.289398
vt 0.784477 0.323588
vt 0.755724 0.324559
vt 0.555087 0.797009
vt 0.590227 0.886957
vt 0.555087 0.872401
vt 0.695650 0.872401
vt 0.730791 0.782453
vt 0.730791 0.886957
vt 0.823522 0.957975
vt 0.794752 0.853471
vt 0.502536 0.857802
vt 0.625368 0.797009
vt 0.590227 0.782453
vt 0.755724 0.288427
vt 0.726970 0.252295
vt 0.755724 0.253266
vt 0.364228 0.976905
vt 0.329087 0.886957
vt 0.364228 0.901513
vt 0.931064 0.854619
vt 0.966205 0.944567
vt 0.931064 0.930011
vt 0.730791 0.797009
vt 0.765932 0.886957
vt 0.730791 0.872401
vt 0.660509 0.872401
vt 0.625368 0.782453
vt 0.660509 0.797009
vt 0.695650 0.797009
vt 0.660509 0.886957
vt 0.660509 0.782453
vt 0.531290 0.858773
vt 0.505081 0.782453
vt 0.533834 0.783424
vt 0.841983 0.288427
vt 0.813230 0.252295
vt 0.841983 0.253266
vt 0.765932 0.783424
vt 0.794685 0.817614
vt 0.765932 0.818585
vt 0.755724 0.324559
vt 0.726970 0.288427
vt 0.755724 0.289398
vt 0.182013 0.821601
vt 0.784477 0.253266
vt 0.813230 0.287456
vt 0.784477 0.288427
vt 0.357857 0.886957
vt 0.329087 0.782453
vt 0.895398 0.908279
vt 0.866629 0.832886
vt 0.895398 0.832886
vt 0.813230 0.324559
vt 0.784477 0.288427
vt 0.813230 0.289398
vt 0.705706 0.327687
vt 0.676936 0.252295
vt 0.705706 0.252295
vt 0.784477 0.287456
vt 0.755724 0.288427
vt 0.253890 0.747705
vt 0.128703 0.929718
vt 0.000000 0.876408
vt 0.053310 0.747705
vt 0.726970 0.327687
vt 0.921009 0.961589
vt 0.899745 0.961589
vt 0.552542 0.859491
vt 0.899745 0.779576
vt 0.916663 0.832886
vt 0.471239 0.912200
vt 0.452531 0.859491
vt 0.916663 0.908279
vt 0.555087 0.912918
vt 0.533834 0.912200
vt 0.100878 0.724530
vt 0.400964 0.789951
vt 0.936673 0.109381
vt 0.931064 0.830915
vt 0.676936 0.101883
vt 0.676936 0.245967
vt 0.575053 0.347849
vt 0.329087 0.245967
vt 0.430970 0.000000
vt 0.605347 0.347849
vt 0.255297 0.000000
vt 0.518492 0.347849
vt 0.733765 0.347849
vt 0.900499 0.347849
vt 0.984668 0.584808
vt 0.204758 1.000000
vt 0.276635 0.926105
vt 0.784477 0.288427
vt 0.695650 0.797009
vt 0.794752 0.957975
vt 0.499992 0.782453
vt 0.625368 0.872401
vt 0.726970 0.287456
vt 0.329087 0.991461
vt 0.966205 0.840063
vt 0.765932 0.782453
vt 0.625368 0.886957
vt 0.695650 0.872401
vt 0.502536 0.857802
vt 0.813230 0.287456
vt 0.794685 0.782453
vt 0.726970 0.323588
vt 0.182013 0.926105
vt 0.329087 0.886957
vt 0.866629 0.908279
vt 0.784477 0.323588
vt 0.676936 0.327687
vt 0.784477 0.252295
vt 0.253890 0.852209
vt 0.128703 0.747705
vt 0.182013 0.801016
vt 0.182013 0.876408
vt 0.053310 0.929718
vt -0.000000 0.801016
vt 0.726970 0.252295
vt 0.555087 0.784142
vt 0.921009 0.779576
vt 0.449986 0.912918
s 1
g LPRook.002_Black_Pieces
usemtl Black_Pieces
f 10/1/10 51/2/51 11/3/11
f 55/4/55 16/5/16 15/6/15
f 54/7/54 15/6/15 14/8/14
f 49/9/49 10/1/10 9/10/9
f 56/11/56 9/10/9 16/12/16
f 28/13/28 29/14/29 27/15/27
f 40/16/40 17/17/17 32/18/32
f 17/17/17 34/19/34 20/20/20
f 13/21/13 54/22/54 14/23/14
f 10/1/10 43/24/43 42/25/42
f 9/10/9 42/25/42 41/26/41
f 12/27/12 53/28/53 13/29/13
f 43/30/43 12/27/12 44/31/44
f 26/32/26 27/33/27 25/34/25
f 38/35/38 30/36/30 28/37/28
f 39/38/39 32/18/32 30/36/30
f 16/12/16 41/26/41 48/39/48
f 45/40/45 14/23/14 46/41/46
f 44/31/44 13/29/13 45/42/45
f 15/6/15 48/30/48 47/43/47
f 14/8/14 47/43/47 46/44/46
f 23/45/23 26/46/26 25/47/25
f 24/48/24 37/49/37 26/50/26
f 26/50/26 38/35/38 28/37/28
f 19/51/19 22/52/22 21/53/21
f 43/30/43 36/54/36 35/55/35
f 40/56/40 41/26/41 33/57/33
f 21/58/21 24/59/24 23/45/23
f 42/25/42 35/60/35 34/61/34
f 41/26/41 34/61/34 33/57/33
f 17/62/17 19/51/19 18/63/18
f 38/64/38 47/43/47 39/65/39
f 39/65/39 48/30/48 40/66/40
f 31/67/31 19/68/19 23/69/23
f 1/70/1 50/71/50 49/9/49
f 8/72/8 49/9/49 56/11/56
f 51/73/51 4/74/4 52/75/52
f 2/76/2 51/2/51 50/71/50
f 32/77/32 18/63/18 31/78/31
f 44/31/44 37/79/37 36/54/36
f 45/40/45 38/80/38 37/81/37
f 8/82/8 61/83/61 1/84/1
f 7/85/7 56/86/56 55/4/55
f 4/74/4 53/28/53 52/75/52
f 11/87/11 52/75/52 12/27/12
f 6/88/6 55/4/55 54/7/54
f 5/89/5 54/22/54 53/90/53
f 30/91/30 31/92/31 29/14/29
f 20/20/20 35/93/35 22/94/22
f 22/94/22 36/95/36 24/48/24
f 64/96/64 77/97/77 61/98/61
f 6/99/6 63/100/63 7/101/7
f 7/101/7 64/102/64 8/82/8
f 3/103/3 60/104/60 58/105/58
f 6/99/6 59/106/59 62/107/62
f 1/84/1 60/104/60 2/108/2
f 5/109/5 57/110/57 59/106/59
f 4/111/4 58/105/58 57/110/57
f 71/112/71 104/113/104 72/114/72
f 62/115/62 79/116/79 63/117/63
f 61/98/61 76/118/76 60/119/60
f 57/120/57 75/121/75 59/122/59
f 63/117/63 80/123/80 64/124/64
f 59/125/59 78/126/78 62/127/62
f 60/119/60 74/128/74 58/129/58
f 58/130/58 73/131/73 57/120/57
f 71/132/71 88/133/88 79/134/79
f 67/135/67 73/136/73 65/137/65
f 68/138/68 74/139/74 76/140/76
f 74/141/74 81/142/81 73/131/73
f 72/114/72 96/143/96 71/112/71
f 70/144/70 79/136/79 78/145/78
f 78/146/78 93/147/93 70/148/70
f 69/149/69 80/150/80 72/151/72
f 89/152/89 82/153/82 90/154/90
f 91/155/91 84/156/84 92/157/92
f 93/158/93 86/159/86 94/160/94
f 96/161/96 87/162/87 88/163/88
f 65/164/65 90/165/90 66/166/66
f 80/167/80 95/168/95 72/169/72
f 66/170/66 82/171/82 74/172/74
f 73/173/73 89/174/89 65/175/65
f 77/97/77 83/176/83 76/118/76
f 67/177/67 86/178/86 75/179/75
f 75/180/75 85/181/85 78/126/78
f 68/182/68 92/183/92 69/184/69
f 76/185/76 91/186/91 68/187/68
f 70/188/70 94/189/94 67/190/67
f 69/148/69 84/191/84 77/192/77
f 79/116/79 87/193/87 80/123/80
f 101/194/101 103/195/103 99/196/99
f 67/190/67 102/197/102 70/188/70
f 68/182/68 98/198/98 66/199/66
f 66/166/66 97/200/97 65/164/65
f 72/201/72 101/202/101 69/184/69
f 70/203/70 103/204/103 71/112/71
f 69/184/69 100/205/100 68/182/68
f 65/164/65 99/206/99 67/207/67
f 10/1/10 50/71/50 51/2/51
f 55/4/55 56/86/56 16/5/16
f 54/7/54 55/4/55 15/6/15
f 49/9/49 50/71/50 10/1/10
f 56/11/56 49/9/49 9/10/9
f 28/13/28 30/91/30 29/14/29
f 40/16/40 33/208/33 17/17/17
f 17/17/17 33/208/33 34/19/34
f 13/21/13 53/90/53 54/22/54
f 10/1/10 11/3/11 43/24/43
f 9/10/9 10/1/10 42/25/42
f 12/27/12 52/75/52 53/28/53
f 43/30/43 11/87/11 12/27/12
f 26/32/26 28/209/28 27/33/27
f 38/35/38 39/38/39 30/36/30
f 39/38/39 40/16/40 32/18/32
f 16/12/16 9/10/9 41/26/41
f 45/40/45 13/21/13 14/23/14
f 44/31/44 12/27/12 13/29/13
f 15/6/15 16/5/16 48/30/48
f 14/8/14 15/6/15 47/43/47
f 23/45/23 24/59/24 26/46/26
f 24/48/24 36/95/36 37/49/37
f 26/50/26 37/49/37 38/35/38
f 19/51/19 20/210/20 22/52/22
f 43/30/43 44/31/44 36/54/36
f 40/56/40 48/39/48 41/26/41
f 21/58/21 22/211/22 24/59/24
f 42/25/42 43/24/43 35/60/35
f 41/26/41 42/25/42 34/61/34
f 17/62/17 20/210/20 19/51/19
f 38/64/38 46/44/46 47/43/47
f 39/65/39 47/43/47 48/30/48
f 23/69/23 25/212/25 27/213/27
f 27/213/27 29/214/29 23/69/23
f 29/214/29 31/67/31 23/69/23
f 31/67/31 18/215/18 19/68/19
f 19/68/19 21/216/21 23/69/23
f 1/70/1 2/76/2 50/71/50
f 8/72/8 1/70/1 49/9/49
f 51/73/51 3/217/3 4/74/4
f 2/76/2 3/218/3 51/2/51
f 32/77/32 17/62/17 18/63/18
f 44/31/44 45/42/45 37/79/37
f 45/40/45 46/41/46 38/80/38
f 8/82/8 64/102/64 61/83/61
f 7/85/7 8/219/8 56/86/56
f 4/74/4 5/220/5 53/28/53
f 11/87/11 51/73/51 52/75/52
f 6/88/6 7/85/7 55/4/55
f 5/89/5 6/221/6 54/22/54
f 30/91/30 32/222/32 31/92/31
f 20/20/20 34/19/34 35/93/35
f 22/94/22 35/93/35 36/95/36
f 64/96/64 80/223/80 77/97/77
f 6/99/6 62/107/62 63/100/63
f 7/101/7 63/100/63 64/102/64
f 3/103/3 2/108/2 60/104/60
f 6/99/6 5/109/5 59/106/59
f 1/84/1 61/83/61 60/104/60
f 5/109/5 4/111/4 57/110/57
f 4/111/4 3/103/3 58/105/58
f 71/112/71 103/204/103 104/113/104
f 62/115/62 78/224/78 79/116/79
f 61/98/61 77/97/77 76/118/76
f 57/120/57 73/131/73 75/121/75
f 63/117/63 79/116/79 80/123/80
f 59/125/59 75/180/75 78/126/78
f 60/119/60 76/118/76 74/128/74
f 58/130/58 74/141/74 73/131/73
f 71/132/71 96/225/96 88/133/88
f 67/135/67 75/145/75 73/136/73
f 68/138/68 66/226/66 74/139/74
f 74/141/74 82/227/82 81/142/81
f 72/114/72 95/228/95 96/143/96
f 70/144/70 71/229/71 79/136/79
f 78/146/78 85/230/85 93/147/93
f 69/149/69 77/231/77 80/150/80
f 89/152/89 81/232/81 82/153/82
f 91/155/91 83/233/83 84/156/84
f 93/158/93 85/234/85 86/159/86
f 96/161/96 95/235/95 87/162/87
f 65/164/65 89/236/89 90/165/90
f 80/167/80 87/237/87 95/168/95
f 66/170/66 90/238/90 82/171/82
f 73/173/73 81/239/81 89/174/89
f 77/97/77 84/240/84 83/176/83
f 67/177/67 94/168/94 86/178/86
f 75/180/75 86/241/86 85/181/85
f 68/182/68 91/242/91 92/183/92
f 76/185/76 83/243/83 91/186/91
f 70/188/70 93/244/93 94/189/94
f 69/148/69 92/245/92 84/191/84
f 79/116/79 88/246/88 87/193/87
f 99/196/99 97/247/97 98/248/98
f 98/248/98 100/249/100 101/194/101
f 101/194/101 104/250/104 103/195/103
f 103/195/103 102/251/102 99/196/99
f 99/196/99 98/248/98 101/194/101
f 67/190/67 99/252/99 102/197/102
f 68/182/68 100/205/100 98/198/98
f 66/166/66 98/253/98 97/200/97
f 72/201/72 104/254/104 101/202/101
f 70/203/70 102/255/102 103/204/103
f 69/184/69 101/202/101 100/205/100
f 65/164/65 97/200/97 99/206/99
